<?xml version="1.0" encoding="UTF-8" standalone="no"?>
<svg
   xml:space="preserve"
   height="121.028"
   width="116.043"
   version="1.1"
   overflow="visible"
   viewBox="0 0 116.043 121.028"
   enable-background="new 0 0 500 200"
   id="svg1"
   sodipodi:docname="USGS_logo_green.svg"
   inkscape:version="1.4.2 (f4327f4, 2025-05-13)"
   xmlns:inkscape="http://www.inkscape.org/namespaces/inkscape"
   xmlns:sodipodi="http://sodipodi.sourceforge.net/DTD/sodipodi-0.dtd"
   xmlns="http://www.w3.org/2000/svg"
   xmlns:svg="http://www.w3.org/2000/svg"><defs
   id="defs1" /><sodipodi:namedview
   id="namedview1"
   pagecolor="#ffffff"
   bordercolor="#000000"
   borderopacity="0.25"
   inkscape:showpageshadow="2"
   inkscape:pageopacity="0.0"
   inkscape:pagecheckerboard="false"
   inkscape:deskcolor="#d1d1d1"
   inkscape:zoom="5.0148013"
   inkscape:cx="94.719606"
   inkscape:cy="55.73501"
   inkscape:window-width="1920"
   inkscape:window-height="991"
   inkscape:window-x="-9"
   inkscape:window-y="-9"
   inkscape:window-maximized="1"
   inkscape:current-layer="svg1" />

<path
   id="waves"
   d="m 32.32,40.195 0.419,0.403 c 11.752,9.844 24.431,8.886 34.092,2.464 6.088,-4.049 33.633,-22.367 49.202,-32.718 V 0 H 0.003 v 27.309 c 7.071,-1.224 18.47,-0.022 32.316,12.886 M 75.97,85.62 62.265,72.478 C 60.339,70.725 58.694,69.438 58.338,69.165 47.134,61.298 36.692,63.689 32.189,65.363 30.827,65.907 29.524,66.65 28.603,67.232 L 0.001,86.362 v 34.666 h 116.03 v -24.95 c -2.55,1.62 -18.27,10.12 -40.063,-10.46 M 31.291,43.296 C 30.672,42.718 29.987,42.102 29.376,41.598 15.674,30.998 2.73,36.189 0,37.482 V 49.413 L 6.714,44.89 c 0,0 10.346,-7.674 26.446,0.195 L 31.291,43.296 M 47.319,58.705 C 46.716,58.171 46.105,57.622 45.496,57.041 33.339,46.756 21.588,49.371 16.715,51.177 c -1.382,0.554 -2.7,1.303 -3.629,1.887 L 0,61.818 V 74.106 L 21.888,59.358 c 0,0 10.228,-7.589 26.166,0.054 l -0.735,-0.707 m 68.722,12.865 c -4.563,3.078 -9.203,6.203 -11.048,7.441 -4.128,2.765 -13.678,9.614 -29.577,2.015 l 1.869,1.797 c 0.699,0.63 1.554,1.362 2.481,2.077 11.418,8.53 23.62,7.304 32.769,1.243 1.267,-0.838 2.424,-1.609 3.507,-2.334 V 71.575 m 0,-24.61 c -10.02,6.738 -23.546,15.833 -26.085,17.536 -4.127,2.765 -13.82,9.708 -29.379,2.273 l 1.804,1.729 c 0.205,0.19 0.409,0.375 0.612,0.571 l -0.01,0.01 0.01,-0.01 c 12.079,10.22 25.379,8.657 34.501,2.563 5.146,-3.436 12.461,-8.38 18.548,-12.507 l -0.01,-12.165 m 0,-24.481 c -14.452,9.682 -38.162,25.568 -41.031,27.493 -4.162,2.789 -13.974,9.836 -29.335,2.5 l 1.864,1.796 c 1.111,1.004 2.605,2.259 4.192,3.295 10.632,6.792 21.759,5.591 30.817,-0.455 6.512,-4.351 22.528,-14.998 33.493,-22.285 V 22.484"
   fill="#007150" />

</svg>
